# xmcd
#
# Track frame offsets:
#	150
#	20644
#	41336
#	56471
#	72412
#	88465
#	109093
#	130094
#	148177
#	168661
#	183751
#	200718
#
# Disc length: 2968 seconds
#
# Revision: 1
# Processed by: cddbd v1.5.1PL0 Copyright (c) Steve Scherf et al.
# Submitted via: CDex 1.50Beta5
#
DISCID=b20b960c
DTITLE=Overflow - 妹でいこう! パーフェクトアレンジアルバム
DYEAR=1900
DGENRE=Soundtrack
TTITLE0=NINA/Happy Faceはとまらない
TTITLE1=妹なんだもん!(instrumental)
TTITLE2=at home
TTITLE3=Our morning
TTITLE4=my room,my thinking
TTITLE5=かづき
TTITLE6=School friends
TTITLE7=love each other
TTITLE8=become sentimental
TTITLE9=星夏
TTITLE10=告白
TTITLE11=川村ゆみ/Symphony of Wishes
EXTD=
EXTT0=
EXTT1=
EXTT2=
EXTT3=
EXTT4=
EXTT5=
EXTT6=
EXTT7=
EXTT8=
EXTT9=
EXTT10=
EXTT11=
PLAYORDER=
